<?xml version="1.0" standalone="no"?>
<!DOCTYPE svg PUBLIC "-//W3C//DTD SVG 20010904//EN"
 "http://www.w3.org/TR/2001/REC-SVG-20010904/DTD/svg10.dtd">
<svg version="1.0" xmlns="http://www.w3.org/2000/svg"
 width="1200.000000pt" height="1200.000000pt" viewBox="0 0 1200.000000 1200.000000"
 preserveAspectRatio="xMidYMid meet">

<g transform="translate(0.000000,1200.000000) scale(0.100000,-0.100000)"
fill="#000000" stroke="none">
<path d="M5670 10349 c-1330 -102 -2555 -817 -3294 -1924 -382 -572 -614
-1185 -707 -1869 -40 -293 -36 -789 7 -1126 85 -654 326 -1293 697 -1850 164
-246 328 -443 561 -675 331 -329 704 -599 1113 -804 1124 -562 2429 -611 3601
-135 175 71 479 227 648 332 962 599 1666 1566 1934 2657 128 519 157 1011 94
1557 -158 1363 -963 2581 -2164 3273 -553 319 -1200 517 -1845 565 -159 11
-489 11 -645 -1z m720 -554 c884 -99 1655 -464 2279 -1078 638 -628 1023
-1427 1123 -2332 20 -183 17 -686 -6 -850 -99 -735 -359 -1343 -825 -1935
l-19 -24 -11 39 c-5 22 -21 85 -35 140 -98 392 -298 789 -563 1120 -316 395
-707 687 -1212 906 l-33 15 88 71 c120 95 294 278 376 393 325 458 430 1024
292 1573 -151 606 -609 1110 -1204 1325 -391 141 -853 146 -1251 12 -217 -73
-486 -229 -655 -382 -548 -493 -764 -1214 -575 -1919 109 -408 354 -772 695
-1029 l58 -44 -33 -15 c-410 -179 -687 -361 -973 -640 -405 -397 -677 -868
-815 -1414 l-38 -148 -64 81 c-436 554 -716 1252 -783 1952 -35 359 -30 631
15 943 202 1408 1208 2607 2565 3061 266 89 533 147 814 179 167 18 624 18
790 0z m-164 -1090 c561 -97 1000 -529 1110 -1092 25 -124 25 -398 1 -510 -67
-312 -219 -569 -457 -776 -174 -151 -388 -254 -630 -304 -120 -25 -392 -24
-510 1 -280 60 -504 180 -700 376 -267 265 -400 589 -400 971 0 276 69 504
227 749 72 112 260 299 373 373 182 118 389 197 575 220 85 11 330 6 411 -8z
m74 -3270 c612 -76 1152 -367 1558 -840 346 -404 534 -868 586 -1452 l6 -62
-73 -58 c-215 -173 -443 -317 -712 -448 -438 -215 -877 -335 -1370 -376 -174
-14 -592 -6 -764 16 -691 86 -1371 374 -1908 808 -72 58 -73 59 -73 107 0 142
54 435 116 625 125 385 331 714 630 1005 404 393 866 610 1459 683 87 11 432
6 545 -8z"/>
</g>
</svg>
