<?xml version="1.0" standalone="no"?>
<!DOCTYPE svg PUBLIC "-//W3C//DTD SVG 20010904//EN"
 "http://www.w3.org/TR/2001/REC-SVG-20010904/DTD/svg10.dtd">
<svg version="1.0" xmlns="http://www.w3.org/2000/svg"
 width="1024.000000pt" height="1024.000000pt" viewBox="0 0 1024.000000 1024.000000"
 preserveAspectRatio="xMidYMid meet">

<g transform="translate(0.000000,1024.000000) scale(0.100000,-0.100000)"
fill="#000000" stroke="none">
<path d="M5055 9770 c-11 -5 -42 -9 -68 -9 -26 -1 -58 -8 -71 -16 -19 -13 -28
-13 -50 -4 -20 9 -35 9 -63 1 -73 -23 -175 -42 -220 -42 -52 0 -136 -37 -129
-56 3 -7 -1 -17 -7 -22 -14 -11 -121 -31 -187 -36 -57 -4 -96 -24 -192 -100
-42 -34 -124 -91 -181 -128 -100 -65 -136 -95 -276 -231 -57 -56 -131 -155
-131 -175 0 -5 -14 -21 -31 -38 -49 -46 -80 -96 -183 -296 -105 -203 -127
-258 -144 -360 -7 -38 -17 -98 -23 -135 -11 -65 -30 -128 -49 -165 -6 -11 -5
-18 3 -21 9 -3 8 -13 -1 -43 -13 -38 -13 -63 5 -306 4 -57 1 -90 -11 -124 -20
-58 -20 -134 -2 -195 15 -48 9 -109 -15 -162 -10 -21 -10 -30 -1 -39 15 -15
16 -65 2 -70 -7 -2 -4 -17 7 -38 14 -28 18 -59 18 -154 0 -66 2 -111 3 -100 2
10 8 23 13 29 5 5 9 -22 9 -67 0 -42 -4 -80 -10 -83 -5 -3 -10 -22 -10 -40 0
-19 -6 -49 -14 -67 -61 -141 -55 -232 25 -378 18 -34 27 -106 11 -96 -4 2 -6
-13 -4 -34 3 -24 -2 -47 -13 -64 -10 -14 -13 -26 -9 -26 5 0 -1 -6 -13 -13
-113 -62 -186 -113 -217 -148 -33 -39 -44 -59 -31 -59 3 0 32 21 64 48 57 45
99 69 186 108 22 10 44 24 48 31 5 7 13 11 18 7 6 -4 3 -14 -8 -26 -24 -27
-151 -110 -188 -123 -17 -5 -37 -16 -45 -22 -8 -7 -42 -34 -75 -61 -83 -68
-139 -131 -171 -193 -22 -45 -26 -66 -27 -140 -1 -74 3 -94 27 -142 29 -61
112 -144 149 -149 12 -2 28 -15 35 -30 7 -16 17 -28 23 -28 12 0 12 17 -1 25
-5 3 -7 12 -4 19 3 8 1 17 -5 21 -14 8 -14 25 -1 25 5 0 26 -36 46 -79 23 -48
42 -77 50 -74 24 9 24 -16 -1 -43 -31 -33 -31 -40 -2 -48 33 -9 34 -8 33 16
-1 14 6 24 17 26 16 3 18 -3 15 -45 -3 -46 -5 -49 -55 -78 -53 -30 -65 -45
-38 -45 8 0 15 -7 15 -15 0 -18 1 -19 -46 1 -45 19 -77 25 -119 24 -43 -1 -51
-15 -21 -35 18 -12 23 -21 17 -29 -8 -9 -1 -12 24 -12 19 0 40 -5 46 -11 7 -7
3 -9 -15 -6 -29 6 -36 -11 -10 -21 9 -4 14 -9 11 -13 -4 -3 -13 0 -22 7 -23
19 -29 5 -10 -24 21 -31 100 -77 120 -69 11 3 15 -2 16 -18 0 -13 3 -18 6 -11
9 22 43 14 43 -10 1 -22 1 -22 15 -4 15 19 35 14 35 -9 0 -8 19 -32 43 -54 33
-31 55 -42 102 -52 33 -6 70 -11 83 -11 12 0 22 -1 22 -3 0 -1 -29 -22 -64
-45 -37 -24 -127 -65 -212 -95 -81 -30 -219 -89 -308 -131 -89 -42 -197 -92
-241 -111 -186 -81 -637 -251 -855 -323 -129 -43 -284 -99 -345 -125 -89 -37
-123 -47 -175 -48 -55 -2 -71 -7 -103 -31 -89 -68 -124 -143 -245 -521 -11
-33 -30 -87 -42 -120 -18 -46 -24 -85 -27 -165 -2 -90 -6 -112 -28 -151 -90
-166 -233 -710 -350 -1326 -35 -186 -69 -374 -75 -418 -9 -66 -44 -282 -99
-622 l-8 -53 2085 0 c1849 0 2083 2 2078 15 -10 26 -159 781 -225 1140 -58
313 -149 875 -176 1085 -9 69 -18 134 -21 145 -2 11 -11 74 -19 140 -9 66 -24
188 -35 270 -25 192 -24 219 6 124 23 -73 60 -129 84 -129 7 0 1 13 -12 29
-32 37 -41 62 -72 211 -25 120 -35 182 -56 355 -5 44 -16 125 -25 180 -8 55
-20 141 -25 190 -6 50 -20 146 -31 215 -24 144 -33 430 -13 437 7 2 9 13 6 25
-3 13 -1 19 5 15 7 -4 16 13 23 43 16 67 27 71 36 13 6 -42 111 -300 134 -328
4 -5 27 -46 50 -90 97 -181 186 -303 383 -527 119 -134 158 -172 213 -204 86
-50 157 -114 179 -161 10 -20 42 -77 71 -125 66 -109 87 -156 80 -184 -5 -19
2 -25 54 -44 80 -30 134 -89 185 -202 l39 -88 31 29 c51 49 157 130 226 174
l65 42 0 65 c-2 118 66 243 219 407 55 60 166 190 247 289 237 293 349 468
423 664 20 52 42 109 50 125 58 130 65 157 66 264 0 120 10 113 35 -24 8 -44
21 -91 28 -105 8 -14 17 -45 21 -70 11 -64 8 -387 -4 -440 -5 -25 -24 -153
-41 -285 -17 -132 -37 -269 -45 -305 -7 -36 -16 -99 -19 -140 -3 -41 -17 -138
-31 -215 -14 -77 -30 -167 -35 -200 -34 -207 -130 -706 -170 -885 -11 -47 -35
-159 -55 -250 -94 -434 -217 -972 -340 -1485 -25 -104 -45 -193 -45 -197 0 -5
1022 -8 2270 -8 1249 0 2270 4 2270 8 0 30 -99 592 -155 882 -14 69 -36 197
-50 285 -82 518 -231 1093 -353 1365 -16 35 -20 64 -19 135 1 92 -4 114 -53
245 -15 41 -31 93 -34 115 -14 76 -49 180 -84 248 -61 118 -139 177 -219 164
-26 -5 -48 0 -82 17 -72 37 -653 265 -891 350 -199 72 -388 145 -795 310 -88
36 -196 74 -240 85 -44 12 -86 28 -94 36 -14 13 -11 15 19 16 l35 1 -40 13
c-32 10 -40 17 -38 34 2 14 -3 21 -14 21 -14 0 -15 2 -4 13 11 9 14 9 18 0 7
-19 49 -16 94 7 22 12 44 18 49 15 13 -8 60 13 60 27 0 9 -3 9 -12 0 -15 -15
-28 -16 -28 -1 0 5 15 16 34 24 40 17 87 73 121 146 21 46 25 68 25 156 0 56
-5 114 -10 129 -8 19 -8 30 0 38 7 7 10 5 10 -6 0 -9 5 -20 10 -23 14 -9 12
21 -2 37 -21 22 -39 81 -28 92 6 6 9 21 9 36 -1 16 -3 19 -6 8 -7 -28 -16 -22
-46 32 -32 57 -25 65 17 18 l28 -33 -20 34 c-11 18 -38 53 -62 77 -62 64 -43
76 21 13 79 -77 61 -33 -22 54 -38 40 -69 75 -69 80 0 4 -6 7 -13 7 -8 0 -22
9 -32 20 -27 29 -10 24 43 -12 25 -18 62 -42 82 -53 68 -38 150 -145 150 -198
0 -13 7 -32 15 -43 8 -10 15 -30 15 -44 0 -14 7 -36 16 -50 39 -66 -16 164
-59 245 -11 22 -39 56 -61 76 -23 20 -60 54 -83 76 -23 22 -71 54 -108 73 -36
18 -80 47 -97 64 -38 38 -70 107 -69 149 4 157 14 212 28 159 3 -12 9 -22 13
-22 4 0 3 19 -3 43 -13 49 -14 181 -2 284 10 92 30 87 22 -6 l-6 -66 14 45
c26 81 20 195 -18 345 -30 120 -45 265 -27 265 6 0 8 5 4 11 -3 6 -1 14 5 18
9 6 9 15 1 36 -16 41 -22 363 -7 372 7 5 12 31 12 58 0 28 3 64 8 80 7 28 6
29 -8 11 -8 -11 -17 -17 -20 -14 -3 2 -6 36 -7 74 -2 40 -8 75 -16 83 -8 8
-11 23 -8 34 3 11 1 29 -5 39 -6 11 -6 18 0 18 11 0 26 -39 23 -57 -2 -8 3
-10 13 -7 20 8 20 9 -13 68 -22 39 -29 66 -31 116 -1 36 -7 85 -12 110 -22 99
-39 210 -33 224 3 8 1 31 -6 50 -6 19 -12 60 -14 91 -3 45 -1 55 11 51 10 -4
11 -1 3 14 -5 10 -15 22 -20 25 -5 3 -17 32 -26 63 -9 31 -22 64 -29 72 -16
19 -35 77 -35 105 0 12 -13 46 -30 76 -16 30 -30 63 -30 75 0 11 -7 29 -15 40
-8 10 -15 24 -15 31 0 7 -11 29 -25 49 -14 20 -25 47 -25 58 0 29 -72 177 -95
196 -10 8 -28 31 -40 50 -52 81 -189 233 -224 247 -19 8 -47 26 -61 40 -14 14
-59 46 -100 72 -42 25 -96 62 -120 83 -70 56 -141 106 -187 128 -45 22 -237
80 -265 80 -9 0 -40 13 -68 30 -28 16 -70 33 -93 36 -23 4 -55 13 -70 21 -17
8 -40 12 -57 8 -19 -4 -64 4 -131 24 -101 31 -175 38 -214 21z m42 -6 c-3 -3
-12 -4 -19 -1 -8 3 -5 6 6 6 11 1 17 -2 13 -5z m-527 -94 c0 -5 -8 -10 -17
-10 -15 0 -16 2 -3 10 19 12 20 12 20 0z m1299 -116 c2 -2 2 -6 -1 -10 -3 -3
-21 2 -39 10 l-34 15 35 -6 c19 -3 37 -7 39 -9z m-676 -794 c8 -12 20 -20 27
-18 7 2 16 -8 20 -22 l7 -25 11 25 c9 22 11 23 17 8 11 -28 25 -21 25 13 0 17
4 28 10 24 5 -3 7 -12 4 -19 -3 -8 -1 -17 5 -21 6 -3 11 0 11 7 0 7 9 19 20
26 18 11 20 10 20 -18 0 -38 18 -40 22 -2 4 40 32 35 38 -8 l5 -34 13 29 c13
29 14 29 28 11 13 -18 15 -19 33 -2 21 19 35 8 24 -20 -5 -13 -3 -15 8 -8 19
11 78 13 85 2 3 -4 10 -6 15 -3 5 4 9 -3 9 -14 0 -26 17 -36 35 -21 11 9 18
10 29 1 7 -6 21 -8 31 -5 14 6 16 3 10 -17 -5 -18 -4 -21 4 -9 6 8 11 10 11 5
0 -6 21 -10 50 -9 42 2 52 -1 61 -18 8 -15 8 -22 -1 -28 -22 -14 0 -32 31 -25
25 6 29 3 29 -14 0 -11 -5 -23 -10 -26 -18 -11 11 -37 37 -32 15 3 35 -6 62
-29 21 -18 41 -30 45 -27 4 4 17 8 29 10 l22 4 -22 -16 c-25 -17 -31 -44 -10
-46 6 0 26 -3 42 -5 17 -2 26 -1 20 3 -14 11 -19 73 -6 73 14 0 21 -13 23 -45
2 -15 8 -30 15 -32 21 -8 16 -36 -6 -30 -16 4 -19 0 -17 -24 1 -16 8 -35 14
-41 15 -15 16 -32 2 -23 -5 3 -10 1 -10 -4 0 -13 3 -13 24 -5 12 5 13 10 5 26
-6 11 -8 22 -5 25 3 4 1 12 -5 19 -8 9 -5 11 11 7 14 -4 19 -11 15 -23 -3 -9
2 -23 10 -30 11 -9 14 -22 10 -38 -6 -24 21 -122 33 -121 20 3 28 -3 29 -22 1
-13 -3 -19 -11 -16 -9 4 -13 -3 -13 -17 0 -17 9 -27 33 -36 19 -8 34 -17 34
-22 0 -12 -14 -10 -27 3 -7 7 -19 9 -29 5 -16 -6 -16 -8 2 -21 25 -19 12 -19
-31 -1 -34 14 -50 6 -22 -11 8 -4 17 -23 20 -40 6 -28 4 -33 -13 -33 -15 0
-20 -7 -20 -26 0 -22 3 -25 23 -21 21 6 21 5 3 -8 -10 -8 -24 -12 -29 -8 -6 4
-8 0 -4 -10 4 -12 1 -17 -9 -17 -16 0 -16 -22 1 -62 6 -14 2 -18 -16 -18 -18
0 -20 -3 -11 -12 20 -20 14 -28 -19 -28 l-32 0 7 -52 c4 -29 7 -61 7 -70 0
-10 5 -21 11 -24 7 -5 8 -2 3 6 -5 8 -4 11 2 7 6 -4 9 -22 6 -42 -3 -28 0 -33
12 -29 8 4 15 1 15 -4 0 -21 -20 -22 -40 -2 -12 12 -28 20 -37 18 -12 -2 -9
-9 12 -33 68 -75 68 -77 1 -32 -69 48 -86 55 -86 37 0 -5 -10 -9 -21 -7 -27 3
-37 -20 -12 -26 10 -2 -16 -2 -57 0 -55 3 -71 2 -60 -6 12 -8 8 -11 -17 -11
-17 0 -64 -7 -104 -15 -40 -9 -79 -13 -87 -10 -8 3 -10 0 -6 -7 5 -8 -13 -9
-67 -4 -74 6 -74 6 -44 -11 l30 -18 -27 -3 c-15 -2 -36 2 -48 8 -17 9 -25 6
-47 -15 -15 -14 -35 -25 -43 -25 -9 0 -26 -7 -38 -16 -12 -8 -26 -13 -31 -10
-5 3 -14 -1 -21 -9 -7 -9 -21 -13 -35 -9 -17 4 -24 0 -28 -17 -4 -15 -11 -20
-22 -15 -9 3 -18 -1 -22 -10 -5 -13 -9 -12 -28 6 -13 12 -28 18 -39 14 -12 -5
-19 2 -27 25 -6 18 -14 29 -17 26 -11 -10 -10 -159 0 -172 7 -9 7 -17 0 -25
-7 -9 -5 -25 7 -53 57 -130 63 -154 58 -228 -4 -46 -2 -76 5 -85 9 -10 8 -16
-3 -23 -12 -7 -12 -10 -1 -18 8 -4 15 -20 15 -34 1 -14 5 -23 9 -21 4 2 9 0
13 -6 9 -15 43 -12 53 5 7 14 12 14 35 2 15 -8 24 -17 20 -20 -3 -4 1 -7 10
-7 8 0 19 9 22 21 l7 21 21 -22 c16 -18 18 -26 9 -41 -7 -11 -8 -20 -2 -24 6
-3 10 1 10 9 0 9 5 16 10 16 11 0 -12 52 -34 80 -23 29 -41 99 -28 112 7 7 12
19 12 28 0 19 42 48 48 32 2 -6 17 -8 38 -5 22 4 34 2 34 -6 0 -6 -7 -11 -16
-11 -14 0 -15 -2 -3 -17 11 -13 11 -17 2 -20 -7 -3 -13 -9 -13 -14 0 -5 6 -9
13 -9 6 0 12 -11 12 -26 0 -25 0 -25 -17 -4 -9 11 -18 26 -20 32 -3 7 -12 9
-24 4 -18 -7 -18 -8 -1 -17 9 -6 15 -15 11 -20 -4 -6 -11 -6 -19 1 -10 8 -15
6 -20 -9 -8 -27 3 -45 19 -32 9 7 17 5 28 -7 8 -9 30 -29 47 -44 18 -15 30
-31 28 -35 -14 -22 142 -141 165 -127 9 6 -28 44 -44 45 -10 0 -10 2 0 6 9 4
7 10 -8 23 -11 10 -19 24 -17 31 2 8 2 11 0 7 -7 -11 -33 3 -33 18 0 8 -4 14
-8 14 -4 0 -8 15 -9 34 l-1 34 33 -14 c24 -10 35 -10 37 -2 3 8 11 7 28 -2 16
-9 25 -9 28 -2 2 7 12 7 31 1 51 -18 200 -35 217 -26 24 14 96 15 113 2 8 -5
25 -10 38 -10 19 -1 26 5 30 27 3 15 10 28 15 28 5 0 6 -9 3 -20 -4 -11 -2
-20 4 -20 6 0 11 7 11 15 0 8 9 19 20 25 11 6 20 20 20 31 0 15 14 26 54 44
29 13 56 31 59 39 6 16 77 24 77 9 0 -5 13 -8 29 -9 32 -1 48 25 28 45 -8 8
-6 11 6 11 10 0 20 -7 23 -15 4 -8 14 -15 23 -14 10 0 11 2 4 6 -7 2 -13 9
-13 14 0 4 7 6 15 3 8 -4 15 -15 15 -25 0 -11 6 -22 14 -25 8 -3 12 -12 9 -21
-3 -8 -2 -18 3 -22 5 -3 18 -17 29 -30 l20 -24 -23 8 c-22 6 -23 5 -11 -16 9
-17 9 -24 0 -27 -16 -5 -14 -22 3 -22 10 0 13 -14 10 -57 -4 -65 -26 -137 -39
-126 -5 5 -1 -3 8 -16 20 -31 12 -86 -21 -129 -25 -33 -25 -33 -5 -38 32 -9
34 -37 4 -59 l-26 -19 19 22 c15 17 17 25 8 34 -18 18 -43 -20 -36 -54 3 -17
1 -28 -5 -28 -6 0 -11 10 -11 23 -1 21 -1 22 -15 3 -17 -23 -20 -86 -5 -86 6
0 13 7 16 15 4 10 13 13 25 10 15 -5 17 -3 12 10 -5 15 -3 15 15 4 20 -12 20
-30 -1 -57 -15 -19 0 -26 18 -8 21 21 24 20 18 -4 -3 -11 -9 -20 -14 -20 -5 0
-9 -9 -9 -19 0 -11 -12 -29 -26 -40 -14 -11 -23 -25 -19 -31 4 -6 2 -16 -4
-23 -5 -7 -6 -19 -2 -26 7 -10 12 -8 24 10 9 12 19 20 23 17 8 -8 -28 -57 -42
-58 -6 0 -17 -25 -24 -55 -7 -31 -17 -58 -22 -61 -4 -3 -8 -17 -8 -32 -1 -24
-2 -25 -11 -9 -8 13 -7 24 5 42 24 36 19 42 -9 11 -29 -31 -30 -31 -57 -7 -31
29 -17 54 27 49 24 -3 36 1 41 12 11 23 11 34 1 47 -5 7 -2 21 8 36 12 19 13
26 4 29 -16 5 -49 -27 -49 -47 0 -9 -8 -19 -17 -22 -23 -9 -43 -35 -38 -50 2
-6 -3 -14 -11 -17 -20 -8 -17 -24 6 -31 11 -3 20 -15 20 -26 0 -10 4 -19 9
-19 14 0 -1 -50 -18 -60 -25 -13 -49 43 -29 67 11 14 11 16 -2 11 -8 -2 -16
-13 -17 -24 -11 -106 -16 -134 -25 -134 -6 0 -8 11 -4 26 5 20 3 27 -14 31
-11 3 -20 13 -20 23 0 25 -10 50 -21 50 -10 0 -12 -40 -3 -64 3 -9 12 -16 20
-16 7 0 20 -22 29 -52 26 -88 5 -69 -29 26 -5 15 -9 16 -21 6 -10 -9 -11 -18
-4 -37 8 -22 7 -24 -8 -19 -9 4 -20 1 -24 -5 -5 -9 -12 -8 -24 4 -29 29 -45
21 -41 -20 3 -21 9 -53 14 -70 9 -29 8 -33 -9 -33 -10 0 -19 5 -19 10 0 6 -4
10 -9 10 -5 0 -5 -17 0 -41 11 -47 4 -64 -10 -27 -9 23 -43 43 -54 31 -5 -4 6
-57 18 -85 5 -14 2 -18 -13 -18 -11 0 -22 8 -25 20 -3 11 -10 20 -17 20 -7 0
-9 -9 -5 -22 6 -22 5 -22 -15 2 -11 14 -35 41 -53 60 -46 48 -97 116 -97 128
0 14 -24 32 -59 42 -37 10 -32 -6 6 -21 13 -5 23 -15 20 -22 -2 -6 7 -25 19
-40 40 -47 27 -50 -16 -3 -22 24 -40 47 -40 52 0 12 -70 67 -77 60 -3 -3 9
-17 26 -31 17 -15 31 -31 31 -37 0 -5 -19 7 -42 26 -23 20 -45 36 -49 36 -4 0
-11 9 -14 20 -3 11 -14 20 -24 20 -10 0 -30 10 -45 21 -15 12 -29 19 -32 16
-3 -2 6 -13 18 -23 13 -11 28 -26 33 -34 7 -12 6 -13 -7 -3 -8 7 -18 10 -21 6
-9 -8 -45 35 -58 70 -6 15 -17 27 -25 27 -17 0 -18 -12 -2 -28 7 -7 8 -12 2
-12 -6 0 -16 12 -22 26 -9 19 -17 24 -32 19 -11 -4 -20 -2 -20 4 0 6 5 11 12
11 6 0 9 3 6 6 -3 3 12 24 33 47 21 23 48 61 59 85 23 49 32 51 50 17 13 -25
36 -24 26 1 -3 8 1 14 8 14 9 0 12 7 9 20 -3 11 -10 20 -15 20 -5 0 -6 5 -3
10 4 6 11 8 16 5 5 -4 9 -1 9 4 0 6 -6 11 -14 11 -19 0 -27 14 -31 48 -1 15
-6 35 -10 45 -4 10 -3 17 4 17 17 0 13 19 -9 37 -11 10 -20 25 -20 34 0 31
-104 129 -138 129 -10 0 -10 -5 -2 -20 9 -16 8 -20 -7 -21 -15 0 -14 -2 5 -11
28 -14 29 -34 1 -41 -20 -5 -20 -6 -2 -24 10 -10 20 -15 21 -11 7 16 22 8 22
-11 0 -11 4 -22 9 -25 5 -3 18 -24 30 -46 17 -32 19 -51 15 -97 -4 -32 -11
-61 -18 -66 -16 -10 -149 -1 -175 12 -23 13 -30 61 -9 61 9 0 9 3 -1 13 -10
10 -18 6 -40 -20 -15 -18 -34 -33 -42 -33 -20 -1 -44 -22 -44 -40 0 -8 -10
-16 -22 -18 -13 -2 -23 -8 -23 -14 0 -6 -18 -8 -47 -4 -27 3 -55 6 -63 7 -50
3 -100 50 -100 93 0 9 -6 15 -12 14 -8 -2 -12 6 -10 20 2 19 -2 22 -18 17 -17
-5 -20 -2 -20 22 1 15 7 45 14 66 8 20 10 37 5 37 -13 0 -11 28 5 53 8 12 17
32 21 45 5 18 2 22 -14 22 -26 0 -18 26 10 33 27 7 24 22 -11 47 -24 17 -30
18 -30 7 0 -9 5 -17 11 -19 11 -4 -45 -68 -60 -68 -4 0 -15 14 -25 31 l-18 31
22 -12 c18 -10 25 -9 38 4 20 20 11 29 -28 29 -22 0 -27 3 -19 13 7 8 5 16 -5
27 -8 8 -12 17 -9 21 3 3 12 -2 19 -12 9 -11 13 -13 14 -4 0 9 7 11 19 7 14
-4 23 0 30 14 14 26 14 31 -4 31 -8 0 -15 5 -15 10 0 6 7 10 15 10 8 0 15 -4
15 -9 0 -11 38 -21 56 -14 22 8 17 32 -6 26 -16 -4 -19 -2 -14 11 7 19 -7 21
-24 4 -15 -15 -15 -12 3 37 8 22 14 32 15 23 0 -9 5 -20 10 -23 7 -4 10 8 10
32 -2 61 5 157 12 169 4 5 3 16 -3 24 -13 22 -11 91 5 121 13 26 28 72 31 100
1 8 9 26 18 39 15 21 15 26 2 40 -12 13 -12 20 -2 40 7 14 12 41 11 60 -2 19
-3 45 -3 57 -1 16 -6 21 -16 17 -11 -5 -14 0 -13 16 2 13 -3 25 -9 27 -8 3
-13 -3 -13 -14 -1 -17 -1 -17 -14 0 -14 18 -15 18 -24 0 -10 -17 -12 -16 -31
6 -12 13 -21 30 -21 38 0 9 -7 12 -24 7 -16 -4 -25 -1 -30 11 -3 10 -12 15
-20 12 -8 -3 -22 2 -32 12 -11 9 -29 18 -41 18 -13 1 -34 3 -48 4 -14 1 -25 8
-25 15 0 8 -4 14 -10 14 -5 0 -10 -9 -10 -20 0 -11 -4 -20 -10 -20 -5 0 -10 9
-10 20 0 11 -4 20 -10 20 -5 0 -10 -6 -10 -12 0 -8 -3 -9 -8 -3 -14 19 -51 35
-68 28 -9 -3 -19 -1 -23 6 -4 6 -30 13 -57 14 -27 2 -62 9 -77 15 -16 7 -54
15 -85 18 -31 4 -67 13 -80 21 -13 8 -32 11 -42 8 -15 -5 -18 -2 -14 8 9 25
-12 28 -40 6 l-26 -21 10 26 c7 21 6 26 -5 26 -8 0 -15 5 -15 11 0 6 6 9 14 6
10 -4 12 0 9 14 -3 10 -10 19 -15 19 -18 0 33 59 54 62 12 2 23 9 26 17 3 8 0
11 -7 7 -18 -11 -34 4 -21 19 12 14 5 39 -9 31 -4 -3 -8 7 -9 21 -2 22 0 24
13 13 20 -17 26 -10 29 34 4 42 -9 47 -26 11 -13 -29 -23 -32 -33 -7 -6 16 -7
16 -21 -2 -18 -25 -27 -16 -15 15 5 13 10 20 10 16 1 -5 6 -5 11 -2 8 5 7 11
-1 21 -9 12 -9 20 1 39 16 31 5 46 -14 19 -8 -10 -18 -15 -23 -11 -4 5 1 15
12 24 11 8 19 19 17 24 -1 5 5 12 13 15 23 9 19 43 -4 37 -16 -4 -19 -1 -14
19 6 21 5 22 -11 9 -16 -13 -17 -12 -11 12 5 18 2 32 -10 43 -11 11 -13 20 -6
27 5 5 7 16 3 25 -4 11 -1 14 11 9 19 -7 21 1 8 22 -5 8 -14 10 -21 6 -9 -5
-11 -4 -6 3 4 7 13 12 20 12 8 0 21 12 31 26 14 22 15 28 4 35 -12 7 -11 9 1
10 8 1 18 1 23 0 10 -1 9 23 -2 35 -5 5 -11 20 -13 34 -2 18 2 26 16 28 11 3
16 0 12 -7 -4 -6 -3 -11 3 -11 10 0 31 31 31 45 0 4 -7 4 -16 1 -8 -3 -12 -2
-9 4 3 6 -2 10 -12 10 -10 0 -14 3 -8 8 25 17 47 64 36 75 -6 6 -11 16 -11 21
0 6 4 5 8 -2 12 -18 42 -4 52 23 6 17 20 25 57 31 26 4 56 7 66 6 13 -1 17 3
13 16 -6 19 28 47 45 36 6 -3 17 3 25 14 8 11 40 30 71 42 32 12 63 26 70 32
7 6 20 8 28 4 9 -3 14 -2 11 2 -2 4 20 9 51 9 31 1 59 7 63 13 6 9 13 9 30 0
12 -6 31 -9 43 -6 11 3 28 1 38 -5 24 -12 35 6 12 20 -10 6 -14 11 -10 11 5 0
23 -10 39 -22 29 -20 30 -20 19 -1 -10 20 -10 20 26 2 20 -10 41 -23 47 -29 5
-5 16 -10 24 -10 12 0 12 3 2 15 -7 8 -8 15 -2 15 5 0 15 -7 22 -15 12 -14 94
-55 109 -55 3 1 -7 12 -24 25 -26 22 -27 25 -10 25 11 0 31 -7 43 -16 28 -19
45 -8 18 12 -36 26 -11 23 49 -5 33 -16 62 -27 64 -25 3 3 -11 17 -30 33 -37
31 -35 53 3 27 34 -24 48 -20 48 14 0 35 13 39 33 10z m727 -180 c-8 -5 -17
-7 -19 -4 -3 3 1 9 9 14 8 5 17 7 19 4 3 -3 -1 -9 -9 -14z m60 -39 c0 -13 -26
-32 -33 -24 -8 7 11 33 24 33 5 0 9 -4 9 -9z m145 -41 c3 -5 2 -10 -4 -10 -5
0 -13 5 -16 10 -3 6 -2 10 4 10 5 0 13 -4 16 -10z m-44 -20 c5 0 9 -4 9 -9 0
-4 -11 -6 -25 -3 -14 2 -25 9 -25 14 0 6 7 7 16 4 9 -3 20 -6 25 -6z m-2061
-36 c0 -8 -5 -12 -10 -9 -6 4 -8 11 -5 16 9 14 15 11 15 -7z m2102 -36 c-7 -7
-12 -8 -12 -2 0 14 12 26 19 19 2 -3 -1 -11 -7 -17z m148 -87 c0 -5 -7 -12
-16 -15 -14 -5 -15 -4 -4 9 14 17 20 19 20 6z m-2300 -76 c0 -8 -4 -15 -10
-15 -5 0 -10 7 -10 15 0 8 5 15 10 15 6 0 10 -7 10 -15z m2340 -5 c0 -5 -4
-10 -10 -10 -5 0 -10 5 -10 10 0 6 5 10 10 10 6 0 10 -4 10 -10z m-36 -35 c-4
-8 -10 -15 -15 -15 -5 0 -9 7 -9 15 0 8 7 15 15 15 9 0 12 -6 9 -15z m34 -57
c-6 -18 -25 -20 -31 -3 -5 10 0 15 14 15 12 0 19 -5 17 -12z m-2378 -88 c0 -5
-7 -10 -16 -10 -8 0 -12 5 -9 10 3 6 10 10 16 10 5 0 9 -4 9 -10z m2378 -136
c-10 -10 -28 6 -28 24 0 15 1 15 17 -1 9 -9 14 -19 11 -23z m-2338 -38 c0 -8
-4 -17 -9 -21 -12 -7 -24 12 -16 25 9 15 25 12 25 -4z m50 -160 c0 -3 -4 -8
-10 -11 -5 -3 -10 -1 -10 4 0 6 5 11 10 11 6 0 10 -2 10 -4z m2150 -50 c0 -3
-4 -8 -10 -11 -5 -3 -10 -1 -10 4 0 6 5 11 10 11 6 0 10 -2 10 -4z m-2206 -35
c-2 -3 -12 3 -22 13 -16 17 -16 18 5 5 12 -7 20 -15 17 -18z m2206 -17 c0 -8
-5 -12 -10 -9 -6 4 -8 11 -5 16 9 14 15 11 15 -7z m-2210 -64 c0 -5 -2 -10 -4
-10 -3 0 -8 5 -11 10 -3 6 -1 10 4 10 6 0 11 -4 11 -10z m10 -64 c0 -2 -8 -10
-17 -17 -16 -13 -17 -12 -4 4 13 16 21 21 21 13z m-70 -21 c0 -8 -7 -15 -15
-15 -26 0 -18 20 13 29 1 1 2 -6 2 -14z m2339 -37 c11 -18 11 -20 -4 -14 -9 3
-23 6 -30 6 -7 0 -15 6 -18 13 -8 22 37 18 52 -5z m-1744 -48 c3 -5 2 -10 -4
-10 -5 0 -13 5 -16 10 -3 6 -2 10 4 10 5 0 13 -4 16 -10z m1025 -50 c0 -5 -7
-10 -15 -10 -8 0 -15 5 -15 10 0 6 7 10 15 10 8 0 15 -4 15 -10z m-750 -34 c0
-3 -4 -8 -10 -11 -5 -3 -10 -1 -10 4 0 6 5 11 10 11 6 0 10 -2 10 -4z m2353
-111 c-7 -21 -13 -19 -13 6 0 11 4 18 10 14 5 -3 7 -12 3 -20z m-1233 -51 c0
-3 -6 -12 -14 -19 -14 -15 -76 -18 -76 -3 0 4 3 7 8 6 4 0 14 1 22 5 44 17 60
20 60 11z m-2770 -78 c-11 -19 -25 -54 -29 -78 l-9 -43 -1 38 c-1 48 32 116
57 117 2 0 -6 -15 -18 -34z m3908 12 c24 -27 42 -70 42 -101 -1 -13 -7 -4 -16
23 -9 25 -28 57 -42 73 -14 15 -21 27 -16 27 6 0 20 -10 32 -22z m-48 -48 c0
-5 -15 -17 -32 -26 l-33 -17 24 27 c25 27 41 33 41 16z m-1142 -25 c12 -12
-10 -17 -43 -11 -21 4 -33 11 -29 18 6 9 61 4 72 -7z m-1528 -15 c0 -5 -11
-10 -25 -10 -14 0 -25 5 -25 10 0 6 11 10 25 10 14 0 25 -4 25 -10z m1350 -27
c0 -16 9 -43 21 -62 11 -18 18 -35 16 -38 -7 -6 -81 33 -95 50 -14 17 -1 62
20 70 28 11 38 6 38 -20z m-1180 -50 c0 -18 -11 -28 -47 -45 -27 -12 -51 -23
-55 -25 -4 -2 6 22 22 53 17 31 30 63 30 72 0 12 6 10 25 -8 14 -13 25 -34 25
-47z m897 25 c-3 -8 -6 -5 -6 6 -1 11 2 17 5 13 3 -3 4 -12 1 -19z m63 13 c0
-17 -48 -66 -56 -58 -4 4 5 21 21 37 31 33 35 35 35 21z m525 -71 c-8 -9 -15
-22 -15 -29 0 -8 -7 -10 -19 -6 -11 3 -22 1 -26 -5 -3 -5 -14 -10 -23 -10 -12
0 -8 7 14 28 16 15 39 42 49 60 l20 33 7 -28 c5 -18 3 -32 -7 -43z m-417 42
c2 -7 -9 -11 -32 -10 -40 1 -48 14 -13 21 29 6 40 3 45 -11z m-958 -22 c12 -8
12 -10 -3 -16 -20 -7 -47 1 -47 16 0 12 30 13 50 0z m-403 -76 c-10 -11 -66
40 -66 61 -1 16 5 13 36 -17 20 -21 34 -40 30 -44z m2873 0 c0 -31 -9 -90 -19
-132 -11 -43 -25 -108 -30 -147 -6 -38 -16 -97 -22 -130 -10 -59 -15 -83 -40
-195 -8 -34 -23 -65 -39 -82 -51 -52 -54 -4 -6 96 32 67 47 136 61 271 2 28
13 97 25 155 11 58 20 117 20 132 0 15 7 33 15 42 8 8 15 22 15 30 0 9 5 16
10 16 6 0 10 -25 10 -56z m-1320 16 c111 -13 153 -19 159 -25 28 -28 -182 -22
-216 7 -7 5 -16 7 -22 4 -13 -9 -61 11 -61 25 0 7 10 9 28 5 15 -4 65 -11 112
-16z m-1253 -7 c5 -13 -75 -36 -108 -31 -39 5 -24 22 27 30 25 4 49 9 52 13 8
8 25 1 29 -12z m174 -3 c17 -10 18 -13 5 -25 -8 -8 -22 -15 -30 -15 -10 0 -13
-6 -10 -15 4 -8 14 -15 23 -15 10 0 12 -3 5 -8 -6 -4 -14 -17 -18 -29 -4 -13
-11 -23 -16 -23 -5 0 -17 -8 -27 -18 -18 -19 -82 -55 -116 -66 -13 -4 -17 -12
-12 -27 7 -22 -18 -59 -40 -59 -18 0 -26 -27 -11 -33 16 -6 36 11 36 31 0 7 4
11 9 7 5 -3 16 1 23 9 8 7 24 16 35 20 12 4 34 22 49 41 15 19 34 35 41 35 7
0 13 5 13 11 0 5 5 7 11 3 8 -5 6 -10 -5 -16 -9 -5 -16 -22 -16 -38 0 -17 -5
-30 -11 -30 -6 0 -8 -7 -5 -16 4 -9 1 -23 -5 -30 -6 -8 -13 -32 -15 -55 -2
-22 -7 -46 -11 -52 -4 -7 -6 -20 -5 -29 2 -11 -3 -18 -12 -18 -23 0 -20 -21 4
-27 19 -5 24 -19 20 -57 -1 -11 3 -15 9 -12 17 11 13 -5 -9 -42 -11 -18 -20
-41 -20 -50 0 -10 -7 -27 -15 -38 -8 -10 -15 -27 -15 -36 0 -10 -13 -40 -30
-66 -31 -51 -37 -68 -20 -57 6 3 10 1 10 -4 0 -6 -4 -11 -10 -11 -5 0 -10 -7
-10 -15 0 -8 -9 -19 -21 -25 -17 -10 -18 -14 -7 -27 10 -13 9 -18 -11 -34 -12
-10 -20 -23 -17 -28 3 -5 -5 -19 -18 -32 -25 -24 -25 -49 0 -28 18 15 19 -5 1
-23 -7 -7 -16 -21 -20 -31 -3 -9 -18 -22 -32 -27 -14 -5 -25 -15 -25 -21 0 -6
-12 -20 -26 -31 -17 -14 -22 -24 -16 -30 14 -14 31 -2 42 28 12 31 34 32 24 2
-7 -23 -6 -23 14 -4 12 10 26 33 32 51 6 19 22 41 36 49 13 9 24 22 24 29 0
21 58 71 86 75 21 2 25 0 21 -13 -9 -21 10 -68 24 -60 6 4 8 13 5 21 -3 8 -1
14 4 14 6 0 10 -7 10 -15 0 -8 7 -15 15 -15 8 0 15 -4 15 -10 0 -5 -5 -10 -11
-10 -6 0 -29 -19 -50 -41 -22 -23 -39 -36 -39 -30 0 17 -18 13 -50 -11 -35
-25 -51 -17 -25 12 10 11 13 20 7 20 -7 0 -17 -9 -24 -20 -7 -11 -20 -20 -29
-20 -9 0 -19 -6 -22 -14 -3 -7 -30 -28 -61 -45 -30 -17 -57 -37 -60 -44 -3 -7
-3 -2 -1 10 3 12 2 24 -2 26 -14 9 -41 -18 -48 -46 -6 -22 -4 -26 9 -21 22 9
20 -9 -4 -31 -11 -10 -23 -36 -26 -57 -7 -42 -7 -42 -36 -27 -13 7 -18 7 -14
1 3 -6 2 -13 -4 -17 -5 -3 -10 -15 -10 -26 0 -10 -3 -19 -8 -19 -14 0 -31 38
-25 59 6 23 -6 28 -25 9 -13 -13 -17 -11 -26 18 -6 18 -3 21 18 17 17 -4 27 1
35 16 11 20 10 20 -15 9 -24 -11 -29 -9 -55 20 -16 18 -26 38 -23 47 4 8 1 15
-5 15 -16 0 -13 21 6 42 19 22 10 36 -12 18 -30 -25 -16 12 16 43 24 22 28 31
18 38 -15 9 -15 8 21 32 31 22 40 21 41 0 0 -14 2 -14 6 -4 4 9 -6 24 -23 37
-17 14 -29 34 -30 51 -1 15 -3 31 -3 36 -1 4 -9 7 -18 7 -16 -1 -16 -2 1 -15
19 -14 18 -15 -14 -15 -25 0 -31 3 -23 11 6 6 9 17 6 24 -2 8 1 24 8 36 10 19
9 25 -10 40 -11 9 -21 22 -21 28 0 6 -4 11 -10 11 -5 0 -10 7 -10 15 0 8 -7
15 -15 15 -18 0 -19 4 -3 30 9 15 10 22 1 31 -9 9 -14 2 -22 -27 -8 -30 -8
-40 3 -46 7 -4 19 -21 26 -38 7 -16 16 -27 20 -25 5 3 12 0 16 -6 3 -6 0 -15
-7 -20 -8 -4 -16 -3 -20 3 -9 15 -30 0 -28 -20 6 -64 -11 -81 -31 -32 -11 26
-10 33 5 50 24 26 12 37 -19 17 -13 -9 -26 -13 -30 -10 -10 10 25 42 40 36 19
-7 18 5 -2 24 -10 10 -14 27 -12 44 3 15 1 26 -4 23 -4 -3 -8 2 -8 10 0 9 -5
16 -11 16 -7 0 -8 -11 -4 -31 9 -40 -11 -31 -31 15 -7 17 -13 25 -14 19 0 -15
-40 -18 -40 -4 0 5 4 11 10 13 5 2 7 13 4 26 -5 18 -11 21 -28 16 -11 -4 -22
-11 -24 -15 -5 -13 -32 -11 -32 2 0 7 8 17 17 24 15 11 16 16 4 38 -12 22 -17
24 -38 16 -34 -13 -35 -12 -21 12 10 17 10 23 1 26 -7 3 -13 11 -13 19 0 8 -6
11 -15 8 -23 -9 -19 43 4 56 12 6 22 6 25 1 4 -5 1 -11 -5 -13 -5 -2 -7 -11
-3 -21 3 -10 12 -16 18 -14 15 5 8 50 -10 60 -15 9 -8 66 10 80 7 6 5 7 -6 4
-22 -7 -32 30 -11 42 14 8 14 11 -1 32 -21 31 -22 57 -1 39 21 -17 26 -9 19
29 -7 32 -30 38 -28 7 1 -9 -2 -16 -7 -16 -13 0 -11 17 6 51 9 16 13 34 10 39
-3 6 -2 10 4 10 6 0 10 21 10 48 -2 65 5 86 27 90 15 3 17 1 7 -9 -21 -21 -15
-27 20 -20 23 5 31 12 29 25 -4 21 16 13 36 -16 7 -10 16 -16 20 -14 4 2 8
-12 9 -31 2 -42 5 -45 37 -45 19 0 25 -7 30 -30 4 -20 11 -28 19 -25 8 3 20
-3 28 -14 7 -10 21 -19 30 -19 10 0 19 -5 21 -12 3 -7 12 -9 22 -5 10 4 14 12
10 18 -4 8 -3 9 4 5 6 -3 16 3 22 14 11 20 40 28 40 11 0 -11 46 -8 57 2 3 4
23 7 43 7 20 0 40 3 43 7 9 8 47 14 118 17 31 1 64 8 73 15 10 8 22 10 33 5
10 -4 25 -8 33 -9 8 0 14 -6 13 -13 -5 -21 12 -13 22 11 6 12 19 23 31 25 33
5 84 57 84 87 0 22 -3 25 -25 19 -27 -7 -34 7 -12 24 11 9 35 17 60 21 5 0 17
-4 28 -9z m-551 -4 c0 -3 -4 -8 -10 -11 -5 -3 -10 -1 -10 4 0 6 5 11 10 11 6
0 10 -2 10 -4z m223 -10 c7 -18 -29 -27 -95 -25 -58 3 -53 19 5 19 23 0 49 5
57 10 21 13 27 12 33 -4z m224 8 c-3 -3 -12 -4 -19 -1 -8 3 -5 6 6 6 11 1 17
-2 13 -5z m2329 -84 c9 -30 22 -74 30 -98 17 -51 18 -206 3 -267 -8 -31 -30
-66 -76 -117 -59 -67 -64 -76 -60 -110 3 -21 1 -41 -4 -44 -5 -3 -6 -11 -2
-17 4 -7 8 -16 8 -22 0 -14 47 -35 66 -29 22 6 34 -25 15 -40 -11 -8 -12 -17
-4 -36 l10 -25 14 30 c14 29 14 28 11 -30 -2 -39 -10 -70 -21 -85 l-18 -25 6
27 c3 14 9 34 13 45 3 10 2 15 -2 10 -5 -4 -17 5 -27 20 l-18 28 6 -35 c5 -30
0 -40 -30 -73 -33 -37 -36 -38 -57 -23 -17 12 -26 13 -36 4 -11 -8 -12 -7 -7
6 3 9 3 24 -1 34 -14 36 -13 131 1 143 8 6 14 18 14 25 0 8 5 14 10 14 13 0
13 37 0 45 -5 3 2 16 17 29 14 12 24 29 21 36 -3 11 -12 7 -33 -14 l-28 -28 6
52 c7 56 21 82 41 74 7 -3 29 13 49 36 50 54 51 124 2 125 -5 0 -11 8 -13 18
-2 11 3 17 17 17 11 0 23 5 26 10 3 6 -1 10 -9 10 -10 0 -13 6 -10 15 5 12 9
13 21 4 12 -11 13 -8 8 14 -4 16 -3 27 3 27 6 0 5 18 -4 47 -8 26 -12 55 -8
65 3 12 0 18 -10 18 -9 0 -16 -5 -16 -11 0 -5 -4 -8 -9 -5 -9 6 -6 74 4 84 3
4 10 0 15 -8 5 -8 13 -11 17 -6 4 5 2 11 -4 13 -7 3 -13 17 -14 31 0 26 -1 26
-9 5 -10 -25 -25 -30 -36 -12 -4 7 0 16 9 21 9 5 31 22 49 39 28 25 33 27 36
12 1 -10 10 -43 18 -73z m-3750 -21 c14 -54 31 -219 21 -209 -5 5 -47 241 -47
263 0 22 12 -3 26 -54z m2379 31 c3 -5 1 -10 -4 -10 -6 0 -11 5 -11 10 0 6 2
10 4 10 3 0 8 -4 11 -10z m-1895 -25 c0 -8 5 -15 11 -15 5 0 8 -4 5 -9 -8 -13
-46 -1 -46 13 0 7 3 16 7 19 11 12 23 8 23 -8z m1908 -16 c-20 -13 -28 -11
-22 5 3 8 12 12 21 9 12 -5 12 -7 1 -14z m16 -28 c3 -5 -1 -11 -9 -15 -9 -3
-15 0 -15 9 0 16 16 20 24 6z m-2304 -100 c0 -5 -7 -11 -15 -15 -9 -3 -15 0
-15 9 0 8 7 15 15 15 8 0 15 -4 15 -9z m2 -64 c2 -13 -1 -39 -8 -57 -11 -30
-21 -34 -14 -5 2 6 2 27 1 48 -2 40 14 51 21 14z m-85 -59 c-3 -7 -5 -2 -5 12
0 14 2 19 5 13 2 -7 2 -19 0 -25z m3607 -39 c5 -34 3 -48 -6 -51 -10 -4 -14
11 -16 56 -4 71 12 67 22 -5z m-3691 -6 c-3 -21 -12 -43 -19 -49 -8 -6 -14
-17 -13 -25 0 -10 2 -11 6 -1 12 29 24 8 23 -40 -1 -29 1 -75 5 -103 10 -68
-9 -49 -29 30 -18 65 -21 141 -7 149 5 3 12 22 15 41 9 47 26 45 19 -2z m522
-13 c3 -5 1 -10 -4 -10 -6 0 -11 5 -11 10 0 6 2 10 4 10 3 0 8 -4 11 -10z
m3580 -239 c-13 -12 -25 18 -24 62 l1 52 13 -55 c7 -30 12 -57 10 -59z m-568
67 c-3 -8 -6 -5 -6 6 -1 11 2 17 5 13 3 -3 4 -12 1 -19z m-3092 -78 c3 -5 1
-10 -4 -10 -6 0 -11 5 -11 10 0 6 2 10 4 10 3 0 8 -4 11 -10z m1182 -17 c-8
-7 21 -43 35 -43 5 0 6 9 3 20 -3 11 -2 20 3 20 15 0 20 -23 9 -41 -6 -10 -3
-28 11 -57 13 -27 16 -42 9 -43 -9 0 -9 -2 0 -5 7 -3 10 -11 7 -18 -6 -16 -99
-15 -130 2 -32 17 -25 89 13 136 15 20 32 36 37 36 5 0 6 -3 3 -7z m-1159 -64
c-3 -20 -5 -19 -9 9 -3 20 -2 29 4 23 5 -5 7 -19 5 -32z m3377 -39 c-4 -17 -9
-29 -12 -26 -3 2 -2 19 2 36 4 17 9 29 12 26 3 -2 2 -19 -2 -36z m-3086 -49
c-3 -6 -10 -7 -18 -2 -7 5 -10 14 -6 21 9 14 29 -2 24 -19z m-570 -131 c13
-24 13 -24 -5 -7 -14 13 -19 34 -20 90 l-2 72 7 -65 c4 -36 13 -76 20 -90z
m3148 40 c-16 -27 -47 -27 -40 -1 5 19 30 32 45 24 4 -2 2 -13 -5 -23z m-3312
1 c-3 -6 -11 -11 -17 -11 -6 0 -6 6 2 15 14 17 26 13 15 -4z m725 0 c0 -5 -7
-14 -15 -21 -10 -9 -15 -9 -15 -1 0 6 5 11 11 11 5 0 7 5 4 10 -3 6 -1 10 4
10 6 0 11 -4 11 -9z m2690 -1 c0 -5 -2 -10 -4 -10 -3 0 -8 5 -11 10 -3 6 -1
10 4 10 6 0 11 -4 11 -10z m-2835 -40 c3 -5 1 -10 -4 -10 -6 0 -11 5 -11 10 0
6 2 10 4 10 3 0 8 -4 11 -10z m289 -39 c3 -5 -1 -14 -8 -20 -12 -10 -13 -8 -9
8 6 23 9 25 17 12z m76 -35 c0 -9 -39 -13 -51 -5 -10 6 -4 9 19 9 17 0 32 -2
32 -4z m-930 -16 c0 -5 -4 -10 -10 -10 -5 0 -10 5 -10 10 0 6 5 10 10 10 6 0
10 -4 10 -10z m644 -32 c14 -28 15 -34 2 -47 -13 -13 -15 -12 -14 5 1 10 -2
31 -5 47 -10 36 -2 34 17 -5z m-674 12 c0 -5 -3 -10 -8 -10 -7 0 -47 -39 -168
-165 -59 -61 -106 -146 -123 -223 -7 -32 -6 -42 2 -39 7 2 15 20 18 39 3 20
21 60 40 89 31 48 34 51 37 29 3 -15 -3 -30 -16 -40 -25 -21 -48 -65 -56 -112
-8 -42 -9 -43 -37 -28 -28 16 -25 -6 6 -34 29 -27 40 -71 31 -121 -7 -35 -9
-36 -39 -29 -17 3 -38 11 -47 16 -50 31 -106 169 -91 223 4 17 14 29 21 27 8
-2 10 5 6 22 -4 18 -2 25 11 28 9 2 21 19 27 39 19 63 156 175 308 252 20 10
42 25 49 33 13 16 29 19 29 4z m911 -53 c-13 -13 -15 1 -4 30 7 17 8 17 11 -1
2 -10 -1 -23 -7 -29z m-954 -84 c-19 -27 -32 -53 -30 -59 2 -6 -7 -19 -21 -27
l-25 -17 12 28 c15 35 79 121 90 122 5 0 -7 -21 -26 -47z m2583 -3 c0 -5 -2
-10 -4 -10 -3 0 -8 5 -11 10 -3 6 -1 10 4 10 6 0 11 -4 11 -10z m545 -78 c-7
-8 -54 42 -48 51 3 5 16 -3 29 -19 13 -15 22 -29 19 -32z m60 7 c11 -17 -1
-21 -15 -4 -8 9 -8 15 -2 15 6 0 14 -5 17 -11z m-3295 -36 c0 -14 -19 -38 -25
-32 -8 8 5 39 16 39 5 0 9 -3 9 -7z m3110 -74 c0 -6 -4 -7 -10 -4 -5 3 -10 11
-10 16 0 6 5 7 10 4 6 -3 10 -11 10 -16z m-895 -9 c3 -5 15 -10 26 -10 10 0
19 -6 19 -14 0 -19 -52 -28 -65 -12 -12 15 -35 10 -35 -9 0 -16 -40 -27 -54
-15 -6 4 -33 10 -60 13 -51 6 -73 18 -62 36 11 17 56 13 56 -4 0 -11 5 -13 18
-8 9 5 36 8 60 7 29 0 42 3 42 13 0 15 46 18 55 3z m805 -85 c0 -5 -11 4 -25
20 -13 17 -24 35 -25 40 0 6 11 -3 25 -20 13 -16 24 -34 25 -40z m-1790 51 c0
-3 -4 -8 -10 -11 -5 -3 -10 -1 -10 4 0 6 5 11 10 11 6 0 10 -2 10 -4z m-1160
-58 c-27 -26 -31 -22 -13 13 11 23 18 28 24 18 5 -9 1 -20 -11 -31z m50 32 c0
-5 -5 -10 -11 -10 -5 0 -7 5 -4 10 3 6 8 10 11 10 2 0 4 -4 4 -10z m2850 -10
c0 -5 -2 -10 -4 -10 -3 0 -8 5 -11 10 -3 6 -1 10 4 10 6 0 11 -4 11 -10z
m-2810 -115 c-13 -14 -26 -23 -28 -20 -7 7 29 45 41 45 6 0 0 -11 -13 -25z
m2030 -45 c0 -5 7 -10 15 -10 8 0 15 5 15 10 0 13 50 13 70 0 8 -5 11 -12 7
-16 -3 -4 -13 -1 -22 6 -16 13 -50 6 -40 -9 3 -6 13 -7 22 -4 13 5 15 2 9 -21
-4 -16 -2 -34 4 -41 9 -11 -4 -13 -69 -11 -44 1 -84 5 -87 9 -4 4 -13 2 -20
-4 -14 -12 -54 -3 -54 12 0 6 -9 5 -21 -2 -29 -15 -53 8 -44 43 8 33 45 45 52
17 7 -24 20 -24 35 1 17 26 28 25 28 -2 0 -13 5 -30 10 -38 8 -12 10 -11 10 6
0 11 7 29 15 40 14 19 15 18 21 -4 8 -28 30 -23 26 6 -2 12 2 22 7 22 6 0 11
-4 11 -10z m-2436 -67 c16 -19 48 -43 72 -54 24 -11 44 -26 44 -34 0 -19 0
-19 -41 1 -47 23 -98 73 -115 113 -17 40 -17 53 -1 27 7 -11 25 -34 41 -53z
m2202 35 c-4 -32 -19 -39 -39 -18 -12 11 10 50 28 50 11 0 14 -9 11 -32z
m2489 -8 c16 -17 16 -20 3 -15 -9 4 -19 13 -22 21 -7 19 -2 18 19 -6z m-1955
6 c0 -3 -4 -8 -10 -11 -5 -3 -10 -1 -10 4 0 6 5 11 10 11 6 0 10 -2 10 -4z
m110 -16 c8 12 10 12 10 -3 0 -27 -53 -19 -59 8 -3 20 -3 20 18 0 19 -16 24
-17 31 -5z m100 -1 c0 -3 10 -11 23 -17 17 -8 18 -11 5 -11 -14 -1 -16 -5 -8
-25 7 -19 5 -26 -6 -30 -10 -4 -13 -13 -9 -26 7 -21 7 -21 -42 -26 -21 -1 -37
4 -49 18 -18 19 -18 19 11 13 29 -7 29 -7 10 8 -11 8 -23 13 -27 11 -4 -3 -12
5 -18 17 -11 19 -10 20 9 14 13 -4 21 -2 21 5 0 23 35 58 57 56 13 0 23 -4 23
-7z m-255 -19 c20 -22 14 -40 -7 -22 -17 14 -49 17 -71 7 -11 -4 -23 -3 -29 3
-12 12 -6 16 37 25 40 9 52 7 70 -13z m-125 -14 c0 -11 -19 -15 -25 -6 -3 5 1
10 9 10 9 0 16 -2 16 -4z m-760 -77 c0 -12 -29 -18 -36 -8 -3 6 -13 8 -21 5
-8 -3 -11 -1 -8 4 7 11 65 10 65 -1z m-1390 -29 c0 -5 -2 -10 -4 -10 -3 0 -8
5 -11 10 -3 6 -1 10 4 10 6 0 11 -4 11 -10z m2475 -20 c3 -5 1 -10 -4 -10 -6
0 -11 5 -11 10 0 6 2 10 4 10 3 0 8 -4 11 -10z m1825 -142 l0 -32 -21 22 c-21
23 -18 42 7 42 9 0 14 -11 14 -32z m12 -162 c-59 -135 -99 -196 -126 -196 -18
0 1 97 24 126 9 12 22 40 29 62 13 37 41 66 41 41 0 -6 5 -7 10 -4 6 3 10 19
10 34 0 15 3 31 8 35 11 12 15 -75 4 -98z m-1911 32 c11 -21 11 -22 -4 -9 -10
7 -17 17 -17 22 0 15 9 10 21 -13z m-111 -53 c0 -14 -6 -8 -20 18 -25 47 -25
59 0 27 11 -14 20 -34 20 -45z m-483 23 c-3 -8 -6 -5 -6 6 -1 11 2 17 5 13 3
-3 4 -12 1 -19z m-1965 -10 c-7 -7 -12 -8 -12 -2 0 6 3 14 7 17 3 4 9 5 12 2
2 -3 -1 -11 -7 -17z m206 -317 c3 -8 -1 -12 -9 -9 -7 2 -15 10 -17 17 -3 8 1
12 9 9 7 -2 15 -10 17 -17z m3923 -41 c28 -16 23 -32 -6 -18 -14 6 -25 15 -25
20 0 11 7 10 31 -2z m-1246 -419 c-11 -10 -31 -22 -45 -26 -22 -7 -23 -6 -11
9 7 9 22 16 32 16 11 0 19 5 19 10 0 6 6 10 12 10 7 0 4 -8 -7 -19z m-205
-235 c0 -3 -4 -8 -10 -11 -5 -3 -10 -1 -10 4 0 6 5 11 10 11 6 0 10 -2 10 -4z
m-300 -70 c0 -3 -4 -8 -10 -11 -5 -3 -10 -1 -10 4 0 6 5 11 10 11 6 0 10 -2
10 -4z m195 -46 c-3 -5 -13 -10 -21 -10 -8 0 -14 5 -14 10 0 6 9 10 21 10 11
0 17 -4 14 -10z m-175 -20 c0 -5 -7 -10 -15 -10 -8 0 -15 5 -15 10 0 6 7 10
15 10 8 0 15 -4 15 -10z m-156 -64 c-10 -8 -21 -12 -24 -10 -5 6 21 24 34 24
6 0 1 -6 -10 -14z m-64 -6 c0 -5 -2 -10 -4 -10 -3 0 -8 5 -11 10 -3 6 -1 10 4
10 6 0 11 -4 11 -10z m153 -7 c-3 -7 -10 -13 -17 -14 -6 0 -23 -2 -38 -4 -32
-4 -35 2 -12 20 23 17 74 15 67 -2z m-124 -162 c7 -5 9 -11 4 -14 -4 -3 -17 1
-28 9 -21 16 0 20 24 5z m-252 -21 c1 -11 -2 -18 -8 -15 -11 7 -12 35 -1 35 4
0 8 -9 9 -20z m-67 -21 c0 -6 -4 -7 -10 -4 -5 3 -10 11 -10 16 0 6 5 7 10 4 6
-3 10 -11 10 -16z m345 -9 c3 -5 1 -10 -4 -10 -6 0 -11 5 -11 10 0 6 2 10 4
10 3 0 8 -4 11 -10z m-101 -15 c-4 -9 -1 -15 7 -15 7 0 24 -10 37 -22 l24 -23
-7 23 c-6 21 -4 23 13 18 11 -4 23 -2 27 4 3 5 14 14 23 19 15 8 18 5 20 -20
2 -23 -2 -29 -18 -29 -28 0 -25 -14 5 -28 24 -11 30 -6 26 21 0 4 4 7 10 7 7
0 10 -12 7 -29 -3 -22 0 -31 14 -34 22 -6 24 -37 3 -37 -24 0 -17 -18 8 -22
17 -2 21 -8 19 -27 -2 -15 0 -21 7 -17 6 4 11 2 11 -3 0 -6 -9 -11 -20 -11
-21 0 -27 -15 -10 -25 6 -4 7 -11 4 -17 -5 -7 -12 -4 -22 8 -14 18 -14 18 -8
-2 5 -15 2 -24 -9 -28 -8 -3 -15 -1 -15 4 0 14 -13 12 -36 -5 -14 -11 -15 -14
-3 -9 10 3 20 0 24 -5 3 -6 11 -9 16 -6 5 4 9 0 9 -8 0 -10 7 -13 20 -10 28 7
26 -20 -2 -41 -18 -13 -19 -16 -5 -12 51 16 67 17 67 7 0 -6 -7 -11 -15 -11
-26 0 -66 -50 -56 -68 7 -12 0 -23 -29 -44 -21 -16 -44 -27 -52 -26 -7 2 -12
-3 -10 -9 3 -18 -8 -16 -29 3 -10 9 -15 23 -12 31 3 8 -7 3 -22 -11 -15 -14
-32 -23 -38 -19 -10 6 -8 -7 8 -52 7 -20 6 -20 -9 -1 -9 11 -16 35 -16 54 0
18 -4 31 -9 27 -9 -5 -51 45 -51 62 0 10 -60 50 -124 83 -36 18 -50 32 -53 50
-2 14 -15 48 -28 76 -15 30 -23 60 -19 70 5 15 4 16 -4 5 -8 -11 -16 -3 -35
37 -14 29 -21 52 -16 52 5 0 9 -5 9 -11 0 -5 5 -7 10 -4 6 3 10 19 10 36 0 16
5 29 11 29 5 0 7 4 4 10 -3 6 1 7 9 4 9 -3 14 -10 13 -16 -1 -5 8 -17 21 -25
14 -10 22 -11 22 -4 0 6 -4 11 -9 11 -5 0 -7 9 -4 20 7 25 39 22 35 -3 -2 -12
4 -17 18 -17 17 0 20 4 15 19 -5 16 -1 19 15 18 12 -1 19 -6 16 -14 -3 -7 -1
-13 4 -13 6 0 10 4 10 9 0 15 59 19 64 4 3 -7 12 -10 20 -7 21 8 42 -6 25 -17
-11 -6 -9 -13 9 -29 l23 -21 -7 25 c-5 20 -2 26 10 26 13 0 15 4 7 19 -10 18
-6 31 10 31 5 0 6 -7 3 -15z m216 3 c0 -7 -5 -20 -10 -28 -7 -12 -12 -12 -21
-3 -23 23 -19 43 7 43 13 0 24 -6 24 -12z m10 -438 c0 -12 -28 -25 -36 -17 -9
9 6 27 22 27 8 0 14 -5 14 -10z"/>
<path d="M4040 8261 c0 -6 5 -13 10 -16 6 -3 10 1 10 9 0 9 -4 16 -10 16 -5 0
-10 -4 -10 -9z"/>
<path d="M4037 8210 c-4 -17 -2 -18 14 -9 11 5 17 14 14 20 -10 15 -22 10 -28
-11z"/>
<path d="M6180 8143 c0 -4 5 -15 10 -23 8 -13 10 -13 10 2 0 9 -4 20 -10 23
-5 3 -10 3 -10 -2z"/>
<path d="M3977 8123 c-4 -3 -7 -13 -7 -21 0 -12 3 -12 15 -2 8 7 15 16 15 21
0 11 -14 12 -23 2z"/>
<path d="M6215 8080 c3 -5 8 -10 11 -10 2 0 4 5 4 10 0 6 -5 10 -11 10 -5 0
-7 -4 -4 -10z"/>
<path d="M3985 8060 c3 -5 10 -10 16 -10 5 0 9 5 9 10 0 6 -7 10 -16 10 -8 0
-12 -4 -9 -10z"/>
<path d="M4026 7901 c-4 -7 -5 -15 -2 -18 9 -9 19 4 14 18 -4 11 -6 11 -12 0z"/>
<path d="M4100 7850 c0 -5 7 -10 15 -10 8 0 15 5 15 10 0 6 -7 10 -15 10 -8 0
-15 -4 -15 -10z"/>
<path d="M4016 7633 c-6 -14 -5 -15 5 -6 7 7 10 15 7 18 -3 3 -9 -2 -12 -12z"/>
<path d="M4890 7403 c0 -4 5 -15 10 -23 8 -13 10 -13 10 2 0 9 -4 20 -10 23
-5 3 -10 3 -10 -2z"/>
<path d="M5390 6829 c0 -5 5 -7 10 -4 6 3 10 8 10 11 0 2 -4 4 -10 4 -5 0 -10
-5 -10 -11z"/>
<path d="M5375 6789 c-4 -6 -5 -12 -2 -15 2 -3 7 2 10 11 7 17 1 20 -8 4z"/>
<path d="M5580 6680 c0 -5 5 -10 11 -10 5 0 7 5 4 10 -3 6 -8 10 -11 10 -2 0
-4 -4 -4 -10z"/>
<path d="M5590 6640 c0 -5 5 -10 11 -10 5 0 7 5 4 10 -3 6 -8 10 -11 10 -2 0
-4 -4 -4 -10z"/>
<path d="M5626 6642 c-3 -6 -1 -14 5 -17 14 -9 20 -2 10 14 -6 8 -11 9 -15 3z"/>
<path d="M5280 6560 c0 -5 5 -10 10 -10 6 0 10 5 10 10 0 6 -4 10 -10 10 -5 0
-10 -4 -10 -10z"/>
<path d="M5420 6560 c0 -21 16 -44 23 -33 4 6 0 19 -8 29 -11 15 -14 16 -15 4z"/>
<path d="M5340 6535 c7 -8 10 -24 7 -36 -4 -16 -2 -19 10 -15 12 5 14 0 11
-24 -3 -17 -1 -33 4 -36 4 -3 8 -14 8 -24 0 -22 47 -76 57 -66 4 3 -2 13 -13
21 -10 8 -14 15 -9 16 17 3 39 6 59 8 17 1 17 3 -5 22 -14 12 -23 29 -21 41 2
12 0 18 -7 14 -6 -4 -11 -2 -11 5 0 6 -8 18 -17 25 -17 13 -17 13 0 14 10 0
20 -7 23 -15 6 -15 24 -11 24 4 0 11 -39 24 -62 21 -12 -1 -18 6 -18 19 0 16
-6 21 -26 21 -22 0 -25 -2 -14 -15z m67 -92 c-4 -3 0 -17 8 -29 10 -15 11 -25
4 -29 -6 -4 -11 -5 -12 -4 -1 2 -8 14 -15 27 -13 24 -9 42 10 42 6 0 8 -3 5
-7z"/>
<path d="M6450 6474 c0 -5 7 -18 15 -28 8 -11 15 -16 15 -10 0 5 -7 18 -15 28
-8 11 -15 16 -15 10z"/>
<path d="M5305 6460 c3 -5 8 -10 11 -10 2 0 4 5 4 10 0 6 -5 10 -11 10 -5 0
-7 -4 -4 -10z"/>
<path d="M6498 6421 c-7 -12 -21 -21 -30 -21 -21 0 -23 -11 -6 -28 19 -19 27
-15 43 25 17 41 13 56 -7 24z"/>
<path d="M6440 6345 c0 -8 7 -15 16 -15 14 0 14 3 4 15 -7 8 -14 15 -16 15 -2
0 -4 -7 -4 -15z"/>
<path d="M5297 6296 c-4 -10 1 -12 14 -9 23 6 24 9 5 16 -8 3 -17 0 -19 -7z"/>
<path d="M6390 6180 c0 -5 5 -10 10 -10 6 0 10 5 10 10 0 6 -4 10 -10 10 -5 0
-10 -4 -10 -10z"/>
<path d="M6130 6110 c-8 -5 -11 -12 -7 -16 4 -4 13 -2 19 4 15 15 7 24 -12 12z"/>
<path d="M6470 6086 c0 -2 7 -7 16 -10 8 -3 12 -2 9 4 -6 10 -25 14 -25 6z"/>
<path d="M6318 6049 c-24 -21 -27 -30 -22 -57 7 -37 23 -41 49 -12 10 11 24
20 31 20 8 0 11 6 8 15 -9 22 5 38 22 24 10 -8 14 -8 14 0 0 6 -4 11 -10 11
-5 0 -10 6 -10 13 0 21 -53 13 -82 -14z"/>
<path d="M6365 5980 c3 -5 8 -10 11 -10 2 0 4 5 4 10 0 6 -5 10 -11 10 -5 0
-7 -4 -4 -10z"/>
<path d="M6246 5934 c-25 -24 -19 -31 28 -32 56 -3 66 12 25 32 -39 19 -34 19
-53 0z"/>
<path d="M6335 5940 c-3 -5 -1 -10 4 -10 6 0 11 5 11 10 0 6 -2 10 -4 10 -3 0
-8 -4 -11 -10z"/>
<path d="M6360 5836 c0 -9 5 -16 10 -16 6 0 10 4 10 9 0 6 -4 13 -10 16 -5 3
-10 -1 -10 -9z"/>
<path d="M6110 5765 c0 -8 5 -15 10 -15 6 0 10 7 10 15 0 8 -4 15 -10 15 -5 0
-10 -7 -10 -15z"/>
<path d="M6140 5734 c0 -8 5 -12 10 -9 6 3 10 10 10 16 0 5 -4 9 -10 9 -5 0
-10 -7 -10 -16z"/>
<path d="M3730 6720 c0 -13 11 -13 30 0 12 8 11 10 -7 10 -13 0 -23 -4 -23
-10z"/>
<path d="M3796 6651 c-4 -5 -2 -12 3 -15 5 -4 12 -2 15 3 4 5 2 12 -3 15 -5 4
-12 2 -15 -3z"/>
<path d="M4356 6483 c-3 -10 -9 -24 -12 -31 -5 -12 25 2 56 26 5 3 -21 22 -31
22 -4 0 -9 -8 -13 -17z"/>
<path d="M4080 6480 c0 -5 5 -10 10 -10 6 0 10 5 10 10 0 6 -4 10 -10 10 -5 0
-10 -4 -10 -10z"/>
<path d="M4205 6450 c-8 -13 3 -30 20 -30 8 0 11 7 8 20 -6 22 -18 26 -28 10z"/>
<path d="M4270 6436 c0 -18 17 -29 30 -21 8 5 7 11 -1 21 -15 18 -29 18 -29 0z"/>
<path d="M3655 6370 c4 -6 11 -8 16 -5 14 9 11 15 -7 15 -8 0 -12 -5 -9 -10z"/>
<path d="M3690 6289 c0 -5 5 -7 10 -4 6 3 10 8 10 11 0 2 -4 4 -10 4 -5 0 -10
-5 -10 -11z"/>
<path d="M3790 6172 c0 -14 11 -21 26 -15 8 3 11 9 8 14 -7 11 -34 12 -34 1z"/>
<path d="M3910 6140 c0 -5 4 -10 9 -10 6 0 13 5 16 10 3 6 -1 10 -9 10 -9 0
-16 -4 -16 -10z"/>
<path d="M3855 6110 c3 -5 10 -10 16 -10 5 0 9 5 9 10 0 6 -7 10 -16 10 -8 0
-12 -4 -9 -10z"/>
<path d="M4425 5950 c3 -5 8 -10 11 -10 2 0 4 5 4 10 0 6 -5 10 -11 10 -5 0
-7 -4 -4 -10z"/>
<path d="M4005 5899 c-4 -6 -5 -12 -2 -15 2 -3 7 2 10 11 7 17 1 20 -8 4z"/>
<path d="M4036 5632 c-2 -4 -1 -14 4 -21 6 -11 10 -9 19 8 10 17 9 21 -3 21
-8 0 -17 -4 -20 -8z"/>
<path d="M4030 5540 c0 -5 5 -10 11 -10 5 0 7 5 4 10 -3 6 -8 10 -11 10 -2 0
-4 -4 -4 -10z"/>
<path d="M4070 5540 c0 -5 7 -7 15 -4 8 4 15 8 15 10 0 2 -7 4 -15 4 -8 0 -15
-4 -15 -10z"/>
<path d="M4126 5535 c-3 -8 -1 -15 4 -15 13 0 22 18 11 24 -5 3 -11 -1 -15 -9z"/>
<path d="M6855 6630 c-3 -5 -1 -10 4 -10 6 0 11 5 11 10 0 6 -2 10 -4 10 -3 0
-8 -4 -11 -10z"/>
<path d="M5150 5126 c0 -9 5 -16 10 -16 6 0 10 4 10 9 0 6 -4 13 -10 16 -5 3
-10 -1 -10 -9z"/>
<path d="M4928 3163 c7 -3 16 -2 19 1 4 3 -2 6 -13 5 -11 0 -14 -3 -6 -6z"/>
<path d="M5150 3140 c0 -5 5 -10 10 -10 6 0 10 5 10 10 0 6 -4 10 -10 10 -5 0
-10 -4 -10 -10z"/>
<path d="M4963 3133 c-19 -7 -15 -23 5 -23 10 0 19 7 19 15 0 16 -4 17 -24 8z"/>
<path d="M5080 3119 c0 -5 5 -7 10 -4 6 3 10 8 10 11 0 2 -4 4 -10 4 -5 0 -10
-5 -10 -11z"/>
<path d="M5207 2853 c-4 -3 -7 -11 -7 -17 0 -6 5 -5 12 2 6 6 9 14 7 17 -3 3
-9 2 -12 -2z"/>
<path d="M4995 2750 c3 -5 13 -10 21 -10 8 0 12 5 9 10 -3 6 -13 10 -21 10 -8
0 -12 -4 -9 -10z"/>
<path d="M5055 2710 c-3 -5 1 -10 10 -10 9 0 13 5 10 10 -3 6 -8 10 -10 10 -2
0 -7 -4 -10 -10z"/>
<path d="M4415 9640 c-3 -5 -2 -10 4 -10 5 0 13 5 16 10 3 6 2 10 -4 10 -5 0
-13 -4 -16 -10z"/>
<path d="M7040 8105 c0 -5 5 -17 10 -25 5 -8 10 -10 10 -5 0 6 -5 17 -10 25
-5 8 -10 11 -10 5z"/>
<path d="M7152 7325 c0 -16 2 -22 5 -12 2 9 2 23 0 30 -3 6 -5 -1 -5 -18z"/>
<path d="M2867 4836 c-4 -10 -1 -13 9 -9 15 6 19 23 5 23 -5 0 -11 -7 -14 -14z"/>
<path d="M2862 4410 c0 -14 2 -19 5 -12 2 6 2 18 0 25 -3 6 -5 1 -5 -13z"/>
<path d="M2880 4316 c0 -8 5 -18 10 -21 6 -3 10 1 10 9 0 8 -4 18 -10 21 -5 3
-10 -1 -10 -9z"/>
<path d="M2910 4267 c0 -8 20 -28 45 -46 55 -39 58 -28 7 22 -40 40 -52 45
-52 24z"/>
<path d="M5831 3416 c-9 -11 -6 -12 13 -9 17 4 42 -7 80 -32 55 -36 62 -48 57
-97 -1 -10 4 -18 13 -18 19 0 20 -5 6 -30 -6 -12 -7 -21 0 -25 5 -3 7 -18 4
-34 -5 -26 -2 -30 40 -47 39 -16 48 -25 58 -56 6 -21 15 -38 20 -38 10 0 11
-6 -12 77 -45 162 -110 256 -208 300 -62 27 -57 26 -71 9z"/>
<path d="M4149 3391 c-42 -27 -110 -91 -97 -91 4 0 13 6 20 13 7 7 36 30 63
52 65 51 70 55 64 55 -3 0 -25 -13 -50 -29z"/>
<path d="M3997 3208 c-28 -62 -45 -129 -28 -113 14 14 65 155 58 162 -3 3 -17
-19 -30 -49z"/>
</g>
</svg>
